{"title":"Men.In.Black.3.2012.TS.RMVB-NoGRP","uid":7299315,"size":562870478,"categoryP":"video","categoryS":"movies","magnet":"?xt=urn:btih:79aad70904bfb6c4a77692f1444aeaafd23e53e6&amp;dn=Men.In.Black.3.2012.TS.RMVB-NoGRP&amp;tr=udp%3A%2F%2Ftracker.openbittorrent.com%3A80&amp;tr=udp%3A%2F%2Fopen.demonii.com%3A1337&amp;tr=udp%3A%2F%2Ftracker.coppersurfer.tk%3A6969&amp;tr=udp%3A%2F%2Fexodus.desync.com%3A6969","seeders":3,"leechers":0,"uploader":"maximersk","files":3,"time":1337984401,"description":"Men.In.Black.3.2012.TS.RMVB-NoGRP\n\n\n\n\n\nAgent J travels in time to MIB's early years in the 1960s, to stop an alien from assassinating his friend Agent K and changing history. \n &lt;a href=&quot;\nhttp://www.imdb.com/title/tt1409024/&quot; rel=&quot;nofollow&quot; target=&quot;_NEW&quot;&gt;\nhttp://www.imdb.com/title/tt1409024/&lt;/a&gt;\nFormat : RealMedia\nFile size : 537 MiB\nDuration : 1h 32mn\nOverall bit rate : 797 Kbps\n\nVideo\nID : 0\nFormat : RealVideo 4\nCodec ID : RV40\nCodec ID/Info : Based on AVC (H.264), Real Player 9\nDuration : 1h 32mn\nBit rate : 733 Kbps\nWidth : 704 pixels\nHeight : 480 pixels\nDisplay aspect ratio : 3:2\nFrame rate : 29.970 fps\nStandard : NTSC\nBits/(Pixel*Frame) : 0.072\nStream size : 484 MiB (90%)\n\nAudio\nID : 1\nFormat : AAC\nFormat/Info : Advanced Audio Codec\nFormat profile : HE-AAC\nCodec ID : racp\nCodec ID/Info : Real Player 10\nDuration : 1h 32mn\nBit rate : 64.0 Kbps\nChannel(s) : 2 channels\nSampling rate : 44.1 KHz\nBit depth : 16 bits\nCompression mode : Lossy\nStream size : 42.3 MiB (8%)","torrent":{"xt":"urn:btih:79aad70904bfb6c4a77692f1444aeaafd23e53e6","amp;dn":"Men.In.Black.3.2012.TS.RMVB-NoGRP","amp;tr":["udp%3A%2F%2Ftracker.openbittorrent.com%3A80","udp%3A%2F%2Fopen.demonii.com%3A1337","udp%3A%2F%2Ftracker.coppersurfer.tk%3A6969","udp%3A%2F%2Fexodus.desync.com%3A6969"],"infoHash":"79aad70904bfb6c4a77692f1444aeaafd23e53e6","infoHashBuffer":{"type":"Buffer","data":[121,170,215,9,4,191,182,196,167,118,146,241,68,74,234,175,210,62,83,230]},"announce":[],"urlList":[]}}